<svg width="14" height="17" viewBox="0 0 14 17" fill="none" xmlns="http://www.w3.org/2000/svg">
<path d="M6.99998 15.1248C8.69442 13.5693 9.95137 12.1561 10.7708 10.8853C11.5903 9.61442 12 8.48595 12 7.49984C12 5.98595 11.5173 4.74637 10.5521 3.78109C9.58678 2.81581 8.40276 2.33317 6.99998 2.33317C5.5972 2.33317 4.41317 2.81581 3.4479 3.78109C2.48262 4.74637 1.99998 5.98595 1.99998 7.49984C1.99998 8.48595 2.4097 9.61442 3.22915 10.8853C4.04859 12.1561 5.30553 13.5693 6.99998 15.1248ZM6.99998 16.7707C6.80553 16.7707 6.61109 16.736 6.41665 16.6665C6.2222 16.5971 6.04859 16.4929 5.89581 16.354C4.99303 15.5207 4.19442 14.7082 3.49998 13.9165C2.80554 13.1248 2.22567 12.3575 1.7604 11.6144C1.29512 10.8714 0.940952 10.1561 0.697896 9.46859C0.454841 8.78109 0.333313 8.12484 0.333313 7.49984C0.333313 5.4165 1.00345 3.75678 2.34373 2.52067C3.68401 1.28456 5.23609 0.666504 6.99998 0.666504C8.76387 0.666504 10.316 1.28456 11.6562 2.52067C12.9965 3.75678 13.6666 5.4165 13.6666 7.49984C13.6666 8.12484 13.5451 8.78109 13.3021 9.46859C13.059 10.1561 12.7048 10.8714 12.2396 11.6144C11.7743 12.3575 11.1944 13.1248 10.5 13.9165C9.80553 14.7082 9.00692 15.5207 8.10415 16.354C7.95137 16.4929 7.77776 16.5971 7.58331 16.6665C7.38887 16.736 7.19442 16.7707 6.99998 16.7707ZM6.99998 8.99984C7.45831 8.99984 7.85067 8.83664 8.17706 8.51025C8.50345 8.18387 8.66665 7.7915 8.66665 7.33317C8.66665 6.87484 8.50345 6.48248 8.17706 6.15609C7.85067 5.8297 7.45831 5.6665 6.99998 5.6665C6.54165 5.6665 6.14928 5.8297 5.8229 6.15609C5.49651 6.48248 5.33331 6.87484 5.33331 7.33317C5.33331 7.7915 5.49651 8.18387 5.8229 8.51025C6.14928 8.83664 6.54165 8.99984 6.99998 8.99984Z" fill="#242424"/>
<path d="M6.99998 15.1248C8.69442 13.5693 9.95137 12.1561 10.7708 10.8853C11.5903 9.61442 12 8.48595 12 7.49984C12 5.98595 11.5173 4.74637 10.5521 3.78109C9.58678 2.81581 8.40276 2.33317 6.99998 2.33317C5.5972 2.33317 4.41317 2.81581 3.4479 3.78109C2.48262 4.74637 1.99998 5.98595 1.99998 7.49984C1.99998 8.48595 2.4097 9.61442 3.22915 10.8853C4.04859 12.1561 5.30553 13.5693 6.99998 15.1248ZM6.99998 16.7707C6.80553 16.7707 6.61109 16.736 6.41665 16.6665C6.2222 16.5971 6.04859 16.4929 5.89581 16.354C4.99303 15.5207 4.19442 14.7082 3.49998 13.9165C2.80554 13.1248 2.22567 12.3575 1.7604 11.6144C1.29512 10.8714 0.940952 10.1561 0.697896 9.46859C0.454841 8.78109 0.333313 8.12484 0.333313 7.49984C0.333313 5.4165 1.00345 3.75678 2.34373 2.52067C3.68401 1.28456 5.23609 0.666504 6.99998 0.666504C8.76387 0.666504 10.316 1.28456 11.6562 2.52067C12.9965 3.75678 13.6666 5.4165 13.6666 7.49984C13.6666 8.12484 13.5451 8.78109 13.3021 9.46859C13.059 10.1561 12.7048 10.8714 12.2396 11.6144C11.7743 12.3575 11.1944 13.1248 10.5 13.9165C9.80553 14.7082 9.00692 15.5207 8.10415 16.354C7.95137 16.4929 7.77776 16.5971 7.58331 16.6665C7.38887 16.736 7.19442 16.7707 6.99998 16.7707ZM6.99998 8.99984C7.45831 8.99984 7.85067 8.83664 8.17706 8.51025C8.50345 8.18387 8.66665 7.7915 8.66665 7.33317C8.66665 6.87484 8.50345 6.48248 8.17706 6.15609C7.85067 5.8297 7.45831 5.6665 6.99998 5.6665C6.54165 5.6665 6.14928 5.8297 5.8229 6.15609C5.49651 6.48248 5.33331 6.87484 5.33331 7.33317C5.33331 7.7915 5.49651 8.18387 5.8229 8.51025C6.14928 8.83664 6.54165 8.99984 6.99998 8.99984Z" fill="black" fill-opacity="0.2"/>
</svg>
