<svg width="34" height="48" viewBox="0 0 34 48" fill="none" xmlns="http://www.w3.org/2000/svg">
<g clip-path="url(#clip0_2501_19295)">
<path d="M0 41.0494H2.55853C3.5546 41.0494 4.29392 41.187 4.77657 41.4638C5.26089 41.7407 5.50218 42.171 5.50218 42.7551C5.50218 43.1407 5.39604 43.4687 5.18559 43.7407C4.97506 44.0127 4.69784 44.1871 4.35384 44.2655V44.3119C4.8074 44.4239 5.1377 44.6127 5.3413 44.8751C5.54497 45.1375 5.64768 45.4784 5.64768 45.8976C5.64768 46.52 5.39787 47.0096 4.89809 47.3665C4.39838 47.7249 3.71555 47.9041 2.85296 47.9041H7.28968e-05V41.0494L0 41.0494ZM1.9801 43.6799H2.57741C2.86149 43.6799 3.0823 43.6255 3.23801 43.515C3.39379 43.4062 3.47076 43.243 3.47076 43.0286C3.47076 42.643 3.15928 42.451 2.53805 42.451H1.98017V43.6798L1.9801 43.6799ZM1.9801 45.0335V46.4736H2.6783C3.2961 46.4736 3.60592 46.2304 3.60592 45.7423C3.60592 45.5135 3.52376 45.3391 3.35777 45.2159C3.19179 45.0943 2.95225 45.0335 2.63726 45.0335H1.9801ZM12.2262 45.2383C12.2262 46.1072 11.9764 46.784 11.4767 47.2704C10.9786 47.7568 10.2787 48 9.38022 48C8.51763 48 7.83138 47.752 7.32307 47.2544C6.81309 46.7568 6.55809 46.0847 6.55809 45.2383C6.55809 44.371 6.80791 43.699 7.30769 43.219C7.8074 42.7389 8.50735 42.4989 9.40923 42.4989C9.96719 42.4989 10.46 42.6094 10.8879 42.8317C11.3158 43.0542 11.646 43.3726 11.8788 43.787C12.1098 44.1999 12.2262 44.6846 12.2262 45.2383V45.2383ZM8.5484 45.2351C8.5484 45.6911 8.61342 46.04 8.74347 46.2784C8.87352 46.5167 9.09264 46.6368 9.4007 46.6368C9.70359 46.6368 9.91754 46.5168 10.0442 46.2784C10.1691 46.04 10.2307 45.6911 10.2307 45.2351C10.2307 44.7823 10.1674 44.4399 10.0407 44.2095C9.91412 43.9775 9.69674 43.8622 9.39043 43.8622C9.08922 43.8622 8.87352 43.9774 8.74347 44.2063C8.61342 44.4367 8.5484 44.779 8.5484 45.2351V45.2351ZM18.7689 45.2383C18.7689 46.1072 18.5191 46.784 18.0194 47.2704C17.5213 47.7568 16.8214 48 15.9229 48C15.0603 48 14.3741 47.752 13.8658 47.2544C13.3558 46.7568 13.1008 46.0847 13.1008 45.2383C13.1008 44.371 13.3506 43.699 13.8504 43.219C14.3501 42.7389 15.0501 42.4989 15.9519 42.4989C16.5099 42.4989 17.0028 42.6094 17.4306 42.8317C17.8585 43.0542 18.1887 43.3726 18.4215 43.787C18.6526 44.1999 18.7689 44.6846 18.7689 45.2383V45.2383ZM15.0911 45.2351C15.0911 45.6911 15.1561 46.04 15.2862 46.2784C15.4162 46.5167 15.6354 46.6368 15.9434 46.6368C16.2463 46.6368 16.4603 46.5168 16.5869 46.2784C16.7118 46.04 16.7734 45.6911 16.7734 45.2351C16.7734 44.7823 16.7101 44.4399 16.5834 44.2095C16.4568 43.9775 16.2394 43.8622 15.9331 43.8622C15.6319 43.8622 15.4162 43.9774 15.2862 44.2063C15.1561 44.4367 15.0911 44.779 15.0911 45.2351V45.2351ZM21.7896 44.9199C22.0258 44.5663 22.2277 44.2911 22.3954 44.0943L23.667 42.595H25.8541L23.8843 44.8527L25.9791 47.904H23.7371L22.4963 46.0016L21.8596 46.456V47.904H19.8882V40.6078H21.8596V43.4783C21.8596 43.9696 21.822 44.4495 21.7485 44.9199H21.7895H21.7896ZM28.6283 47.904H26.6671V42.595H28.6283V47.904ZM26.6174 41.2702C26.6174 40.995 26.6996 40.7902 26.8622 40.6558C27.0265 40.5214 27.2918 40.4542 27.6546 40.4542C28.0191 40.4542 28.2861 40.523 28.4522 40.6606C28.6199 40.7982 28.7036 41.0014 28.7036 41.2702C28.7036 41.8079 28.3545 42.0767 27.6546 42.0767C26.9632 42.0767 26.6175 41.8079 26.6175 41.2702H26.6174ZM32.7802 46.5504C33.0438 46.5504 33.3604 46.4896 33.7267 46.368V47.704C33.4631 47.8112 33.2115 47.8864 32.9719 47.9313C32.734 47.9776 32.4534 48.0001 32.1334 48.0001C31.4745 48.0001 31.0004 47.8496 30.7095 47.5472C30.4185 47.2465 30.273 46.7825 30.273 46.1568V43.9679H29.5851V43.2223L30.4579 42.6463L30.9645 41.5311H32.248V42.5951H33.6428V43.9679H32.248V46.0353C32.248 46.3792 32.4244 46.5504 32.7803 46.5504L32.7802 46.5504Z" fill="#EF7800"/>
<path fill-rule="evenodd" clip-rule="evenodd" d="M0.00349905 1.47443L0 35.8614C0.00153083 37.3932 0.713879 37.1283 2.83452 37.1284L18.4979 37.1361C24.6189 37.1345 30.1186 35.5155 32.9286 30.1588C34.2762 27.5901 34.372 24.4843 33.1054 21.8755C32.5446 20.7201 31.5917 19.6343 30.78 18.9552C30.2719 18.5302 29.7935 18.1865 29.2063 17.8249C28.5912 17.446 27.8933 17.2579 27.4142 16.878C28.0111 16.2073 30.3194 15.2535 31.2265 12.086C31.9871 9.42983 31.2612 7.07593 30.0374 5.2231C28.9579 3.5889 27.3131 2.31599 25.156 1.32953C22.1906 -0.0265969 19.6249 -0.000902892 16.1775 0.000187571L1.44226 5.12635e-05C0.0965883 -8.50444e-05 0.00575885 0.216781 0.00349905 1.47443ZM10.9415 16.5526C10.9406 20.6221 10.7992 27.7963 10.9534 31.5314L12.9288 31.5608C19.3867 31.6252 18.1838 26.9385 18.1867 21.3256C18.1891 16.7498 17.0648 15.2408 10.9387 15.7637L10.9415 16.5526ZM13.165 5.6753C8.63011 6.81987 9.77656 13.7812 15.3594 12.5507C20.1205 11.5014 18.4944 4.33008 13.165 5.6753Z" fill="#EF7800"/>
</g>
<defs>
<clipPath id="clip0_2501_19295">
<rect width="34" height="48" fill="white"/>
</clipPath>
</defs>
</svg>
