<svg width="15" height="17" viewBox="0 0 15 17" fill="none" xmlns="http://www.w3.org/2000/svg">
<path d="M1.66667 16.6667C1.20833 16.6667 0.815972 16.5035 0.489583 16.1771C0.163194 15.8507 0 15.4583 0 15V3.33333C0 2.875 0.163194 2.48264 0.489583 2.15625C0.815972 1.82986 1.20833 1.66667 1.66667 1.66667H2.5V0.833333C2.5 0.597222 2.57986 0.399306 2.73958 0.239583C2.89931 0.0798611 3.09722 0 3.33333 0C3.56944 0 3.76736 0.0798611 3.92708 0.239583C4.08681 0.399306 4.16667 0.597222 4.16667 0.833333V1.66667H10.8333V0.833333C10.8333 0.597222 10.9132 0.399306 11.0729 0.239583C11.2326 0.0798611 11.4306 0 11.6667 0C11.9028 0 12.1007 0.0798611 12.2604 0.239583C12.4201 0.399306 12.5 0.597222 12.5 0.833333V1.66667H13.3333C13.7917 1.66667 14.184 1.82986 14.5104 2.15625C14.8368 2.48264 15 2.875 15 3.33333V15C15 15.4583 14.8368 15.8507 14.5104 16.1771C14.184 16.5035 13.7917 16.6667 13.3333 16.6667H1.66667ZM1.66667 15H13.3333V6.66667H1.66667V15ZM1.66667 5H13.3333V3.33333H1.66667V5Z" fill="#242424"/>
<path d="M1.66667 16.6667C1.20833 16.6667 0.815972 16.5035 0.489583 16.1771C0.163194 15.8507 0 15.4583 0 15V3.33333C0 2.875 0.163194 2.48264 0.489583 2.15625C0.815972 1.82986 1.20833 1.66667 1.66667 1.66667H2.5V0.833333C2.5 0.597222 2.57986 0.399306 2.73958 0.239583C2.89931 0.0798611 3.09722 0 3.33333 0C3.56944 0 3.76736 0.0798611 3.92708 0.239583C4.08681 0.399306 4.16667 0.597222 4.16667 0.833333V1.66667H10.8333V0.833333C10.8333 0.597222 10.9132 0.399306 11.0729 0.239583C11.2326 0.0798611 11.4306 0 11.6667 0C11.9028 0 12.1007 0.0798611 12.2604 0.239583C12.4201 0.399306 12.5 0.597222 12.5 0.833333V1.66667H13.3333C13.7917 1.66667 14.184 1.82986 14.5104 2.15625C14.8368 2.48264 15 2.875 15 3.33333V15C15 15.4583 14.8368 15.8507 14.5104 16.1771C14.184 16.5035 13.7917 16.6667 13.3333 16.6667H1.66667ZM1.66667 15H13.3333V6.66667H1.66667V15ZM1.66667 5H13.3333V3.33333H1.66667V5Z" fill="black" fill-opacity="0.2"/>
</svg>
