<svg width="10" height="20" viewBox="0 0 10 20" fill="none" xmlns="http://www.w3.org/2000/svg">
<path d="M10 0.1507V3.31539H8.19502C6.76349 3.31539 6.49378 4.02583 6.49378 5.03767V7.3197H9.89626L9.43983 10.8719H6.49378V20H2.94606V10.8719H0V7.3197H2.94606V4.69322C2.94606 1.6577 4.75104 0 7.36514 0C8.60996 0 9.6888 0.0861141 10 0.1507Z" fill="#242424"/>
<path d="M10 0.1507V3.31539H8.19502C6.76349 3.31539 6.49378 4.02583 6.49378 5.03767V7.3197H9.89626L9.43983 10.8719H6.49378V20H2.94606V10.8719H0V7.3197H2.94606V4.69322C2.94606 1.6577 4.75104 0 7.36514 0C8.60996 0 9.6888 0.0861141 10 0.1507Z" fill="black" fill-opacity="0.2"/>
</svg>
