<svg width="36" height="32" viewBox="0 0 36 32" fill="none" xmlns="http://www.w3.org/2000/svg">
<path d="M7.33499 31.9872C4.99156 32.1227 2.27481 31.1789 1.02643 29.2495C0.638009 28.6487 0.389577 27.9546 0.389577 27.9546C0.0300405 26.9454 -0.0810644 25.8252 0.0580394 24.6081C0.219809 23.1968 0.674896 21.981 0.975769 21.1767C2.38636 17.4085 5.18711 15.3648 7.23233 13.8726C9.26556 12.3898 11.5303 11.2362 13.9746 10.4373C13.9302 10.0524 13.8427 9.46454 13.6547 8.77355C13.1391 6.88144 11.7321 3.72023 9.75531 3.54115C9.20956 3.49182 8.23006 3.63491 7.96074 4.2828C7.8643 4.51475 7.88874 4.74138 7.90074 4.84047C7.99762 5.65411 8.86025 6.22245 9.58421 6.32332C10.1073 6.3962 10.5433 6.22245 10.8046 6.08159C11.2183 6.99298 11.6325 7.90393 12.0463 8.81532C11.549 9.07972 10.6148 9.48676 9.39222 9.4952C8.14695 9.50409 7.19411 9.09483 6.69325 8.8331L6.68836 8.83043C6.24438 8.58647 4.89379 7.84394 4.31426 6.23534C4.17516 5.85141 3.88184 4.83159 4.17249 3.68735C4.69069 1.64771 6.75547 0.314611 8.52737 0.0515466C8.75758 0.0173304 8.9918 0 9.22423 0C12.8063 0 15.4861 4.03173 15.987 4.83959C16.9776 6.43708 17.31 7.90171 17.582 9.51964C18.9211 9.20414 20.2921 9.00596 21.6671 8.93041C22.0956 8.90686 22.5302 8.89486 22.9595 8.89486C24.2021 8.89486 25.454 8.99485 26.6802 9.19126C26.9531 9.23525 27.2104 9.3539 27.4237 9.53431L28.2943 10.2706C28.6245 10.5497 28.7899 10.9834 28.7361 11.4304C28.6819 11.8819 28.4041 12.2707 28.0104 12.4449L26.9046 12.935C26.7135 13.0199 26.5118 13.0626 26.3051 13.0626C26.238 13.0626 26.17 13.0577 26.1033 13.0488C25.0687 12.9048 24.0159 12.8315 22.9737 12.8315C22.5164 12.8315 22.0529 12.8457 21.5965 12.8737C20.3868 12.9466 19.1753 13.119 17.9873 13.3874C18.0544 16.386 17.5242 18.7927 17.1656 20.4217C16.6198 22.8995 16.1154 25.12 14.5675 27.3858C14.1862 27.9435 13.4876 28.95 12.301 29.9067C11.605 30.4684 9.85353 31.8415 7.33499 31.9872ZM14.0511 14.5734C12.7916 14.9978 11.2881 15.6945 9.75931 16.8575C7.72831 18.4021 6.62125 20.032 5.66486 21.4389C4.79113 22.7249 4.41692 23.5456 4.29471 24.5356C4.23116 25.0484 4.05383 26.4824 4.85157 27.3418C5.36932 27.8999 6.05239 27.9506 6.39326 27.971C6.83591 27.9973 8.04207 27.9701 9.73353 26.3744C12.6689 23.6047 13.4547 19.5165 13.7275 18.0012C13.9831 16.5775 14.0422 15.3755 14.0511 14.5734Z" fill="white"/>
<path d="M30.2611 16.3105C29.7753 16.3105 29.318 16.063 29.038 15.648L29.0207 15.6222C28.7883 15.2778 28.6971 14.841 28.7714 14.4246C28.8478 13.9931 29.0949 13.6132 29.4491 13.3826L31.9894 11.7256L30.3219 9.25266C30.0891 8.90739 29.998 8.47102 30.0722 8.05465C30.1486 7.62317 30.3957 7.24324 30.7499 7.01261L30.7757 6.99572C31.0121 6.84153 31.285 6.75977 31.5641 6.75977C32.0499 6.75977 32.5072 7.00728 32.7872 7.42232L35.3906 11.2825C35.6235 11.6278 35.7146 12.0642 35.6403 12.4805C35.5639 12.912 35.3168 13.2919 34.9626 13.5226L31.0499 16.0746C30.813 16.2288 30.5402 16.3105 30.2611 16.3105Z" fill="white"/>
</svg>
