<svg width="24" height="24" viewBox="0 0 24 24" fill="none" xmlns="http://www.w3.org/2000/svg">
<path d="M16.0742 2C19.3409 2.00011 22 4.6714 22 7.95117V16.0498C21.9998 19.3296 19.3406 21.9999 16.0742 22H7.92676C4.66032 22 2.00022 19.3295 2 16.0498V7.95117C2 4.67133 4.66018 2 7.92676 2H16.0742ZM7.92676 3.9248C5.68889 3.9248 3.91699 5.70405 3.91699 7.95117V16.0498C3.91721 18.2967 5.68887 20.0752 7.92676 20.0752H16.0742C18.312 20.0751 20.0838 18.2967 20.084 16.0498V7.95117C20.084 5.70428 18.3122 3.92491 16.0742 3.9248H7.92676ZM12 7.6748C14.3348 7.67483 16.2275 9.57567 16.2275 11.9199C16.2275 14.2641 14.3347 16.164 12 16.1641C9.66524 16.1641 7.77249 14.2642 7.77246 11.9199C7.77246 9.57566 9.66522 7.6748 12 7.6748ZM17.3799 5.49902C18.0431 5.49908 18.5809 6.03923 18.5811 6.70508C18.5811 7.37107 18.0432 7.91108 17.3799 7.91113C16.7166 7.91113 16.1787 7.3711 16.1787 6.70508C16.1789 6.0392 16.7167 5.49902 17.3799 5.49902Z" fill="#242424"/>
<path d="M16.0742 2C19.3409 2.00011 22 4.6714 22 7.95117V16.0498C21.9998 19.3296 19.3406 21.9999 16.0742 22H7.92676C4.66032 22 2.00022 19.3295 2 16.0498V7.95117C2 4.67133 4.66018 2 7.92676 2H16.0742ZM7.92676 3.9248C5.68889 3.9248 3.91699 5.70405 3.91699 7.95117V16.0498C3.91721 18.2967 5.68887 20.0752 7.92676 20.0752H16.0742C18.312 20.0751 20.0838 18.2967 20.084 16.0498V7.95117C20.084 5.70428 18.3122 3.92491 16.0742 3.9248H7.92676ZM12 7.6748C14.3348 7.67483 16.2275 9.57567 16.2275 11.9199C16.2275 14.2641 14.3347 16.164 12 16.1641C9.66524 16.1641 7.77249 14.2642 7.77246 11.9199C7.77246 9.57566 9.66522 7.6748 12 7.6748ZM17.3799 5.49902C18.0431 5.49908 18.5809 6.03923 18.5811 6.70508C18.5811 7.37107 18.0432 7.91108 17.3799 7.91113C16.7166 7.91113 16.1787 7.3711 16.1787 6.70508C16.1789 6.0392 16.7167 5.49902 17.3799 5.49902Z" fill="black" fill-opacity="0.2"/>
</svg>
