<svg width="18" height="18" viewBox="0 0 18 18" fill="none" xmlns="http://www.w3.org/2000/svg">
<path d="M2.25 9.75C2.75 11.7187 2.75 13.7813 2.25 15.75" stroke="#EAB305" stroke-width="1.5" stroke-linecap="round" stroke-linejoin="round"/>
<path d="M6 15.75V12.75" stroke="#EAB305" stroke-width="1.5" stroke-linecap="round" stroke-linejoin="round"/>
<path d="M2.62402 12.75H5.99955" stroke="#EAB305" stroke-width="1.5" stroke-linecap="round" stroke-linejoin="round"/>
<path d="M15.75 9.75C15.25 11.7187 15.25 13.7813 15.75 15.75" stroke="#EAB305" stroke-width="1.5" stroke-linecap="round" stroke-linejoin="round"/>
<path d="M12 15.75V12.75" stroke="#EAB305" stroke-width="1.5" stroke-linecap="round" stroke-linejoin="round"/>
<path d="M15.3755 12.75H12" stroke="#EAB305" stroke-width="1.5" stroke-linecap="round" stroke-linejoin="round"/>
<path d="M9 6V15.75" stroke="#EAB305" stroke-width="1.5" stroke-linecap="round" stroke-linejoin="round"/>
<path d="M12.75 10.5H5.25" stroke="#EAB305" stroke-width="1.5" stroke-linecap="round" stroke-linejoin="round"/>
<path fill-rule="evenodd" clip-rule="evenodd" d="M16.2654 4.37894C12.1823 0.540353 5.81769 0.540353 1.73466 4.37894C1.58392 4.52339 1.49909 4.72339 1.50001 4.93216V5.24999C1.50001 5.66421 1.83579 5.99999 2.25001 5.99999H15.75C16.1642 5.99999 16.5 5.66421 16.5 5.24999V4.93216C16.5009 4.72339 16.4161 4.52339 16.2654 4.37894Z" stroke="#EAB305" stroke-width="1.5" stroke-linecap="round" stroke-linejoin="round"/>
</svg>
